<svg xmlns="http://www.w3.org/2000/svg" width="1600" height="900" viewBox="0 0 1600 900">
    <defs>
      <linearGradient id="sky" x1="0" x2="0" y1="0" y2="1">
        <stop offset="0%" stop-color="#6272a8"/>
        <stop offset="55%" stop-color="#c5cfd4"/>
        <stop offset="56%" stop-color="#5a695e"/>
        <stop offset="100%" stop-color="#1a2320"/>
      </linearGradient>
      <linearGradient id="glass" x1="0" x2="1">
        <stop offset="0%" stop-color="#16303c"/>
        <stop offset="50%" stop-color="#5f7884"/>
        <stop offset="100%" stop-color="#17323d"/>
      </linearGradient>
      <linearGradient id="road" x1="0" x2="1">
        <stop offset="0%" stop-color="#38454b"/>
        <stop offset="50%" stop-color="#1d272c"/>
        <stop offset="100%" stop-color="#45545a"/>
      </linearGradient>
      <filter id="shadow" x="-20%" y="-20%" width="140%" height="140%">
        <feDropShadow dx="0" dy="8" stdDeviation="8" flood-opacity="0.35"/>
      </filter>
    </defs>
    <rect width="1600" height="900" fill="url(#sky)"/>
    <path d="M0 690 L1600 610 L1600 900 L0 900 Z" fill="url(#road)"/>
    <rect x="360" y="290" width="840" height="360" rx="16" fill="url(#glass)" stroke="#8799a1" stroke-width="4" filter="url(#shadow)"/>
    <rect x="390" y="320" width="780" height="300" fill="none" stroke="#f0cc6a55" stroke-width="2"/>
    <line x1="430" y1="320" x2="430" y2="620" stroke="#f0cc6a44" stroke-width="1"/><line x1="464" y1="320" x2="464" y2="620" stroke="#f0cc6a44" stroke-width="1"/><line x1="498" y1="320" x2="498" y2="620" stroke="#f0cc6a44" stroke-width="1"/><line x1="532" y1="320" x2="532" y2="620" stroke="#f0cc6a44" stroke-width="1"/><line x1="566" y1="320" x2="566" y2="620" stroke="#f0cc6a44" stroke-width="1"/><line x1="600" y1="320" x2="600" y2="620" stroke="#f0cc6a44" stroke-width="1"/><line x1="634" y1="320" x2="634" y2="620" stroke="#f0cc6a44" stroke-width="1"/><line x1="668" y1="320" x2="668" y2="620" stroke="#f0cc6a44" stroke-width="1"/><line x1="702" y1="320" x2="702" y2="620" stroke="#f0cc6a44" stroke-width="1"/><line x1="736" y1="320" x2="736" y2="620" stroke="#f0cc6a44" stroke-width="1"/><line x1="770" y1="320" x2="770" y2="620" stroke="#f0cc6a44" stroke-width="1"/><line x1="804" y1="320" x2="804" y2="620" stroke="#f0cc6a44" stroke-width="1"/><line x1="838" y1="320" x2="838" y2="620" stroke="#f0cc6a44" stroke-width="1"/><line x1="872" y1="320" x2="872" y2="620" stroke="#f0cc6a44" stroke-width="1"/><line x1="906" y1="320" x2="906" y2="620" stroke="#f0cc6a44" stroke-width="1"/><line x1="940" y1="320" x2="940" y2="620" stroke="#f0cc6a44" stroke-width="1"/><line x1="974" y1="320" x2="974" y2="620" stroke="#f0cc6a44" stroke-width="1"/><line x1="1008" y1="320" x2="1008" y2="620" stroke="#f0cc6a44" stroke-width="1"/><line x1="1042" y1="320" x2="1042" y2="620" stroke="#f0cc6a44" stroke-width="1"/><line x1="1076" y1="320" x2="1076" y2="620" stroke="#f0cc6a44" stroke-width="1"/><line x1="1110" y1="320" x2="1110" y2="620" stroke="#f0cc6a44" stroke-width="1"/><line x1="1144" y1="320" x2="1144" y2="620" stroke="#f0cc6a44" stroke-width="1"/>
    <line x1="390" y1="350" x2="1170" y2="350" stroke="#f0cc6a44" stroke-width="1"/><line x1="390" y1="378" x2="1170" y2="378" stroke="#f0cc6a44" stroke-width="1"/><line x1="390" y1="406" x2="1170" y2="406" stroke="#f0cc6a44" stroke-width="1"/><line x1="390" y1="434" x2="1170" y2="434" stroke="#f0cc6a44" stroke-width="1"/><line x1="390" y1="462" x2="1170" y2="462" stroke="#f0cc6a44" stroke-width="1"/><line x1="390" y1="490" x2="1170" y2="490" stroke="#f0cc6a44" stroke-width="1"/><line x1="390" y1="518" x2="1170" y2="518" stroke="#f0cc6a44" stroke-width="1"/><line x1="390" y1="546" x2="1170" y2="546" stroke="#f0cc6a44" stroke-width="1"/><line x1="390" y1="574" x2="1170" y2="574" stroke="#f0cc6a44" stroke-width="1"/><line x1="390" y1="602" x2="1170" y2="602" stroke="#f0cc6a44" stroke-width="1"/>
    <text x="800" y="470" text-anchor="middle" font-size="54" font-weight="800" fill="#ffe7a5" font-family="Arial, sans-serif">ZAZO TEKNOLOJİ</text>
    <text x="800" y="520" text-anchor="middle" font-size="24" fill="#d7e2e7" font-family="Arial, sans-serif">Teknoloji Dünyası</text>
    <circle cx="245" cy="565" r="100" fill="#94a5d1" opacity="0.9" filter="url(#shadow)"/>
    <circle cx="1355" cy="545" r="95" fill="#94a5d1" opacity="0.9" filter="url(#shadow)"/>
    <circle cx="1075" cy="715" r="72" fill="#94a5d1" opacity="0.85" filter="url(#shadow)"/>
    <text x="245" y="590" text-anchor="middle" font-size="78">💻</text>
    <text x="1355" y="570" text-anchor="middle" font-size="78">📱</text>
    <text x="1075" y="738" text-anchor="middle" font-size="58">🤖</text>
    <rect x="24" y="26" width="400" height="105" rx="18" fill="#07141ed8" stroke="#927235"/>
    <text x="48" y="72" font-size="38" font-weight="800" fill="#ffe7a5" font-family="Arial, sans-serif">ZAZO TEKNOLOJİ</text>
    <text x="48" y="106" font-size="22" fill="#d3dee3" font-family="Arial, sans-serif">ZAZO TYCOON • premium sector world</text>
    </svg>